# xmcd
#
# Track frame offsets: 
#        150
#        30198
#        51634
#        70406
#        100999
#        121742
#        145026
#        169226
#        185771
#        208034
#        240389
#        259831
#        282801
#
# Disc length: 4086 seconds
#
# Revision: 0
# Processed by: cddbd v1.5.2PL0 Copyright (c) Steve Scherf et al.
# Submitted via: ExactAudioCopy v0.99pb4
#
DISCID=bd0ff40d
DTITLE=Claude Bourbon - Stop Breaking Down
DYEAR=2002
DGENRE=Blues
TTITLE0=Howlin' at my door
TTITLE1=I Se your Face
TTITLE2=T'es trop bonne
TTITLE3=Death don't Have no Mercy
TTITLE4=That'll never Happen no More
TTITLE5=It's not for you
TTITLE6=How to Stretch it
TTITLE7=Mind Your own Business
TTITLE8=Toujours les memes
TTITLE9=Stop Breaking Down
TTITLE10=When you got a Good Friend
TTITLE11=St James Infirmary
TTITLE12=Have you Ever Loved a woman
EXTD=
EXTT0=
EXTT1=
EXTT2=
EXTT3=
EXTT4=
EXTT5=
EXTT6=
EXTT7=
EXTT8=
EXTT9=
EXTT10=
EXTT11=
EXTT12=
PLAYORDER=
